<?xml version="1.0" encoding="UTF-8" standalone="no"?>
<svg
   xmlns:dc="http://purl.org/dc/elements/1.1/"
   xmlns:cc="http://creativecommons.org/ns#"
   xmlns:rdf="http://www.w3.org/1999/02/22-rdf-syntax-ns#"
   xmlns:svg="http://www.w3.org/2000/svg"
   xmlns="http://www.w3.org/2000/svg"
   xmlns:sodipodi="http://sodipodi.sourceforge.net/DTD/sodipodi-0.dtd"
   xmlns:inkscape="http://www.inkscape.org/namespaces/inkscape"
   data-name="Layer 1"
   viewBox="0 0 68.855927 68.855927"
   x="0px"
   y="0px"
   version="1.1"
   id="svg14"
   sodipodi:docname="audio.svg"
   width="68.855927"
   height="68.855927"
   inkscape:version="0.92.2 5c3e80d, 2017-08-06">
  <metadata
     id="metadata20">
    <rdf:RDF>
      <cc:Work
         rdf:about="">
        <dc:format>image/svg+xml</dc:format>
        <dc:type
           rdf:resource="http://purl.org/dc/dcmitype/StillImage" />
        <dc:title>57 all</dc:title>
      </cc:Work>
    </rdf:RDF>
  </metadata>
  <defs
     id="defs18" />
  <sodipodi:namedview
     pagecolor="#ffffff"
     bordercolor="#666666"
     borderopacity="1"
     objecttolerance="10"
     gridtolerance="10"
     guidetolerance="10"
     inkscape:pageopacity="0"
     inkscape:pageshadow="2"
     inkscape:window-width="1126"
     inkscape:window-height="682"
     id="namedview16"
     showgrid="false"
     fit-margin-top="0"
     fit-margin-left="0"
     fit-margin-right="0"
     fit-margin-bottom="0"
     inkscape:zoom="1.888"
     inkscape:cx="-34.421013"
     inkscape:cy="21.933828"
     inkscape:window-x="0"
     inkscape:window-y="0"
     inkscape:window-maximized="0"
     inkscape:current-layer="svg14" />
  <title
     id="title2">57 all</title>
  <rect
     style="opacity:1;vector-effect:none;fill:none;fill-opacity:1;stroke:none;stroke-width:1.13385832;stroke-linecap:butt;stroke-linejoin:miter;stroke-miterlimit:4;stroke-dasharray:none;stroke-dashoffset:0;stroke-opacity:1;paint-order:normal"
     id="rect4516"
     width="68.855927"
     height="68.855927"
     x="0"
     y="0" />
  <g
     id="g4521"
     transform="translate(-15.565081,-15.577902)">
    <path
       id="path4"
       d="m 51.62,26.19 a 4,4 0 0 0 -4,0.07 L 31.29,36.2 h -4.46 a 9,9 0 0 0 -9,9 v 9.6 a 9,9 0 0 0 9,9 h 4.46 l 16.3,9.94 a 4,4 0 0 0 6.08,-3.42 V 29.68 A 4,4 0 0 0 51.62,26.19 Z M 23.83,54.8 v -9.6 a 3,3 0 0 1 3,-3 h 2.51 v 15.6 h -2.51 a 3,3 0 0 1 -3,-3 z m 23.84,12 -12.33,-7.56 V 40.76 l 12.33,-7.52 z m 3,-35.37 z"
       inkscape:connector-curvature="0" />
    <path
       id="path6"
       d="m 59.73,39.54 a 3,3 0 0 0 0,4.24 8.79,8.79 0 0 1 0,12.42 3.008758,3.008758 0 1 0 4.27,4.24 14.8,14.8 0 0 0 0,-20.9 3,3 0 0 0 -4.27,0 z"
       inkscape:connector-curvature="0" />
    <path
       id="path8"
       d="m 70.15,31.22 a 3,3 0 0 0 0,4.24 20.59,20.59 0 0 1 0,29.07 3,3 0 0 0 4.24,4.24 26.59,26.59 0 0 0 0,-37.56 3,3 0 0 0 -4.24,0.01 z"
       inkscape:connector-curvature="0" />
  </g>
</svg>
